<svg width="94" height="94" viewBox="0 0 94 94" fill="none" xmlns="http://www.w3.org/2000/svg">
<rect width="94" height="94" rx="25" fill="#68A2DF" fill-opacity="0.15"/>
<path d="M79.3825 41.3863C79.1875 41.258 77.5625 40.007 74.0525 40.007C73.1425 40.007 72.2325 40.1032 71.3225 40.2636C70.64 35.7727 66.8375 33.4951 66.675 33.3989L65.7325 32.8536L65.1475 33.7197C64.3675 34.8745 63.75 36.1897 63.49 37.537C62.84 40.1032 63.23 42.5411 64.5625 44.6262C62.97 45.5244 60.37 45.749 59.8175 45.749H17.015C15.91 45.749 15 46.6471 15 47.7699C15 51.4589 15.585 55.1478 16.885 58.6123C18.3475 62.4296 20.5575 65.2524 23.385 66.9847C26.57 68.9093 31.8025 70 37.75 70C40.3175 70 42.9825 69.7755 45.615 69.2943C49.255 68.6527 52.765 67.4017 55.9825 65.5732C58.6472 64.0692 61.0323 62.1274 63.035 59.8312C66.4475 56.0781 68.4625 51.8117 69.925 48.1227H70.5425C74.2475 48.1227 76.555 46.6471 77.8225 45.3961C78.6675 44.6262 79.285 43.696 79.74 42.6053L80 41.8354L79.3825 41.3863ZM21.0125 44.5621H26.7325C26.9925 44.5621 27.2525 44.3375 27.2525 44.0488V38.9805C27.2525 38.7238 27.025 38.4672 26.7325 38.4672H21.0125C20.72 38.4672 20.4925 38.6918 20.4925 38.9805V44.0488C20.525 44.3375 20.72 44.5621 21.0125 44.5621ZM28.91 44.5621H34.63C34.89 44.5621 35.15 44.3375 35.15 44.0488V38.9805C35.15 38.7238 34.9225 38.4672 34.63 38.4672H28.91C28.6175 38.4672 28.39 38.6918 28.39 38.9805V44.0488C28.4225 44.3375 28.6175 44.5621 28.91 44.5621ZM36.9375 44.5621H42.625C42.95 44.5621 43.1775 44.3375 43.1775 44.0488V38.9805C43.1775 38.7238 42.9825 38.4672 42.625 38.4672H36.9375C36.6775 38.4672 36.45 38.6918 36.45 38.9805V44.0488C36.45 44.3375 36.645 44.5621 36.9375 44.5621ZM44.8675 44.5621H50.62C50.88 44.5621 51.1075 44.3375 51.1075 44.0488V38.9805C51.1075 38.7238 50.9125 38.4672 50.62 38.4672H44.8675C44.6075 38.4672 44.38 38.6918 44.38 38.9805V44.0488C44.38 44.3375 44.6075 44.5621 44.8675 44.5621ZM28.91 37.3766H34.63C34.89 37.3766 35.15 37.0879 35.15 36.7992V31.7629C35.15 31.4742 34.9225 31.2497 34.63 31.2497H28.91C28.6175 31.2497 28.39 31.4421 28.39 31.7629V36.7992C28.4225 37.0879 28.6175 37.3766 28.91 37.3766ZM36.9375 37.3766H42.625C42.95 37.3766 43.1775 37.0879 43.1775 36.7992V31.7629C43.1775 31.4742 42.9825 31.2497 42.625 31.2497H36.9375C36.6775 31.2497 36.45 31.4421 36.45 31.7629V36.7992C36.45 37.0879 36.645 37.3766 36.9375 37.3766ZM44.8675 37.3766H50.62C50.88 37.3766 51.1075 37.0879 51.1075 36.7992V31.7629C51.1075 31.4742 50.88 31.2497 50.62 31.2497H44.8675C44.6075 31.2497 44.38 31.4421 44.38 31.7629V36.7992C44.38 37.0879 44.6075 37.3766 44.8675 37.3766ZM44.8675 30.0628H50.62C50.88 30.0628 51.1075 29.8382 51.1075 29.5495V24.5453C51.1075 24.2245 50.88 24 50.62 24H44.8675C44.6075 24 44.38 24.1925 44.38 24.5453V29.5495C44.38 29.8061 44.6075 30.0628 44.8675 30.0628ZM52.8625 44.5621H58.5825C58.875 44.5621 59.1025 44.3375 59.1025 44.0488V38.9805C59.1025 38.7238 58.875 38.4672 58.5825 38.4672H52.8625C52.6025 38.4672 52.375 38.6918 52.375 38.9805V44.0488C52.375 44.3375 52.6025 44.5621 52.8625 44.5621Z" fill="#1072D8"/>
</svg>
