<svg width="94" height="94" viewBox="0 0 94 94" fill="none" xmlns="http://www.w3.org/2000/svg">
<rect width="94" height="94" rx="25" fill="white"/>
<path d="M83.7188 67.1722C82.6498 67.5772 81.4696 67.5765 80.4011 67.1702C79.3327 66.7639 78.4502 65.9801 77.9205 64.9672C74.5927 59.9856 70.9179 55.2287 67.3859 50.3697L65.8543 48.3281C61.6486 53.963 57.4428 59.3731 53.6046 64.9878C53.1047 65.9558 52.2699 66.709 51.2558 67.1072C50.2416 67.5054 49.1174 67.5213 48.0924 67.152L63.8741 45.9803L49.1947 26.8499C50.2514 26.4683 51.4073 26.4631 52.4674 26.8351C53.5275 27.207 54.4268 27.9333 55.0135 28.8914C58.4228 33.8734 62.2001 38.6303 65.9564 43.6733C69.7337 38.6711 73.4698 33.8936 76.961 28.9527C77.4636 28.0003 78.2989 27.266 79.3078 26.8895C80.3167 26.5131 81.4289 26.5208 82.4325 26.9112L76.7363 34.4653C74.1844 37.8339 71.6732 41.223 69.0191 44.5101C68.8052 44.7016 68.6341 44.936 68.517 45.1981C68.3998 45.4602 68.3393 45.7441 68.3393 46.0312C68.3393 46.3183 68.3998 46.6021 68.517 46.8642C68.6341 47.1263 68.8052 47.3608 69.0191 47.5522C73.8987 54.0243 78.7371 60.5165 83.7188 67.1722ZM10.2812 45.7148C10.7101 43.6733 10.9752 41.4478 11.5675 39.3654C15.0995 26.8095 29.4929 21.5825 39.3948 29.3614C45.1931 33.9145 46.6427 40.366 46.3571 47.6341H13.691C13.16 60.619 22.531 68.4588 34.5153 64.4572C36.4594 63.7618 38.1997 62.5933 39.5791 61.057C40.9585 59.5207 41.9336 57.665 42.4164 55.6575C43.0494 53.616 44.0702 53.269 46.0097 53.8609C45.6902 56.3464 44.8114 58.7271 43.4394 60.8241C42.0674 62.921 40.2379 64.6797 38.0884 65.9678C34.5368 67.9103 30.462 68.6799 26.4466 68.1666C22.4313 67.6532 18.6811 65.8832 15.7325 63.1096C12.8154 59.8296 11.0515 55.6852 10.7101 51.3089C10.7101 50.615 10.4446 49.9206 10.3018 49.2674C10.2883 48.0833 10.2815 46.8991 10.2812 45.7148ZM13.7317 44.8369H43.2741C43.0902 35.4251 37.1491 28.7489 29.2278 28.688C20.4079 28.5654 14.0993 35.0984 13.7111 44.7961L13.7317 44.8369Z" fill="#0F0F0F"/>
</svg>
