<svg width="94" height="94" viewBox="0 0 94 94" fill="none" xmlns="http://www.w3.org/2000/svg">
<rect width="94" height="94" rx="25" fill="#08AFD8" fill-opacity="0.15"/>
<path d="M56.5116 41.1358C55.2173 41.4749 54.1485 41.6565 53.056 42.0561C52.1891 42.2862 51.3104 42.5284 50.301 42.7948L50.2298 42.8069C49.731 42.9522 49.6835 42.9643 49.2204 42.4194C48.6623 41.7776 48.2585 41.3659 47.4867 40.9784C45.1473 39.8159 42.8911 40.155 40.7892 41.5475C38.2717 43.2065 36.9774 45.6647 37.013 48.7162C37.0486 51.7435 39.0792 54.2259 41.9054 54.6376C44.5179 54.9766 46.6317 54.0806 48.2942 52.1552C48.5435 51.8404 48.7692 51.5134 49.0185 51.1501C49.1135 51.029 49.1967 50.8958 49.2917 50.7505H42.1548C41.383 50.7505 41.193 50.2662 41.4542 49.6244C41.9292 48.4498 42.8198 46.4881 43.3423 45.5072C43.4492 45.2893 43.7104 44.8049 44.1617 44.8049H56.1672C56.7016 43.1823 57.5685 41.5475 58.7322 39.9975C61.4278 36.3769 64.5866 34.4878 69.0872 33.7007C72.8634 33.0226 76.414 33.398 79.644 35.6261C82.5652 37.6605 84.3702 40.4214 84.8571 44.042C85.4865 49.14 84.0377 53.2814 80.499 56.8294C78.1596 59.3602 75.1671 60.9465 71.7234 61.6609C71.0584 61.782 70.4053 61.8426 69.764 61.9031C69.4197 61.9273 69.0872 61.9637 68.7547 62C65.3941 61.9273 62.3185 60.9465 59.7297 58.6821C57.9129 57.0715 56.6541 55.0977 56.0366 52.8091C55.5972 53.6931 55.0866 54.5528 54.3741 55.3641C51.8091 58.9485 48.3298 61.1766 43.9361 61.7699C40.3023 62.2664 36.9417 61.552 33.973 59.2875C31.2418 57.1684 29.6861 54.3833 29.2824 50.908C28.7955 46.7908 29.983 42.9885 32.4174 39.8522C35.0536 36.3406 38.533 34.1125 42.7842 33.3254C46.2635 32.5746 49.5885 33.0953 52.5929 35.1781C54.5523 36.498 55.9535 38.3023 56.8797 40.494C57.1054 40.8331 56.951 41.0268 56.5116 41.1358ZM14.7356 41.8139C14.5872 41.8139 14.5504 41.7413 14.624 41.6202L15.4018 40.603C15.4754 40.494 15.6607 40.4214 15.8091 40.4214H29.0211C29.1636 40.4214 29.1993 40.5303 29.128 40.6393L28.4986 41.6202C28.4274 41.7413 28.2374 41.8503 28.1305 41.8503L14.7356 41.8139ZM9.14797 45.2893C9.00001 45.2893 8.96296 45.2045 9.03706 45.0955L9.81404 44.0784C9.88814 43.9694 10.0731 43.8846 10.2208 43.8846H27.0974C27.2399 43.8846 27.3112 44.0057 27.2755 44.1147L26.9787 45.0229C26.943 45.1682 26.8005 45.2529 26.6462 45.2529L9.14797 45.2893ZM17.9917 48.5345C17.9181 48.6435 17.9549 48.7525 18.1021 48.7525L26.1712 48.7888C26.278 48.7888 26.4324 48.6799 26.4324 48.5345L26.5037 47.6264C26.5037 47.4689 26.4324 47.3599 26.278 47.3599H18.88C18.7315 47.3599 18.5843 47.4689 18.5095 47.59L17.9917 48.5345ZM77.5421 46.3549C77.5184 46.04 77.5065 45.7736 77.459 45.5072C76.794 41.7776 73.4215 39.6585 69.9065 40.494C66.4628 41.2811 64.2422 43.5092 63.4347 47.0572C62.7697 49.9998 64.1709 52.9786 66.8309 54.1896C68.8734 55.0977 70.904 54.9888 72.8634 53.9595C75.7846 52.3126 77.3759 49.9998 77.5659 46.7545C77.554 46.6092 77.554 46.476 77.5421 46.3549Z" fill="#08AFD8"/>
</svg>
