<svg width="94" height="94" viewBox="0 0 94 94" fill="none" xmlns="http://www.w3.org/2000/svg">
<g clip-path="url(#clip0_176_252)">
<g filter="url(#filter0_d_176_252)">
<path d="M65.5625 13.5H29.4375C20.6355 13.5 13.5 20.6355 13.5 29.4375V65.5625C13.5 74.3645 20.6355 81.5 29.4375 81.5H65.5625C74.3645 81.5 81.5 74.3645 81.5 65.5625V29.4375C81.5 20.6355 74.3645 13.5 65.5625 13.5Z" fill="#330000"/>
<path d="M46.3666 53.9635H35.8266L33.6732 60.6219C33.6166 60.8769 33.39 61.0469 33.135 61.0185H27.8082C27.4966 61.0185 27.4116 60.8485 27.4966 60.5085L36.62 34.2435C36.705 33.9603 36.79 33.6485 36.9032 33.3085C37.0166 32.7135 37.0732 32.0903 37.0732 31.4669C37.045 31.3253 37.1582 31.1835 37.3 31.1553H44.6382C44.865 31.1553 44.9782 31.2403 45.0066 31.3819L55.3482 60.5653C55.4332 60.8769 55.3482 61.0185 55.065 61.0185H49.1432C48.945 61.0469 48.7466 60.9053 48.69 60.7069L46.3666 53.9635ZM37.47 48.2119H44.6666C44.4966 47.6169 44.27 46.9085 44.015 46.1719C43.76 45.4069 43.505 44.5853 43.25 43.7353C42.9666 42.8569 42.7116 42.0069 42.4282 41.1285C42.145 40.2503 41.89 39.4285 41.6632 38.6069C41.4366 37.8137 41.2382 37.0769 41.04 36.3969H40.9832C40.7282 37.6153 40.4166 38.8337 40.02 40.0519C39.595 41.4119 39.17 42.8285 38.7166 44.2453C38.3508 45.5826 37.9349 46.9057 37.47 48.2119ZM61.6666 36.1135C60.7316 36.1419 59.825 35.7735 59.145 35.1219C58.4935 34.4135 58.1535 33.4785 58.1816 32.5153C58.1535 31.5519 58.5216 30.6453 59.2016 29.9935C59.8816 29.3416 60.7885 29.0019 61.7235 29.0019C62.8285 29.0019 63.6785 29.3419 64.3016 29.9935C64.9296 30.6803 65.2651 31.585 65.2366 32.5153C65.265 33.4785 64.925 34.4135 64.245 35.1219C63.5935 35.8019 62.63 36.1703 61.6666 36.1135ZM58.4935 60.7069V38.8903C58.4935 38.6069 58.6066 38.4935 58.8616 38.4935H64.4716C64.7266 38.4935 64.84 38.6353 64.84 38.8903V60.7069C64.84 61.0185 64.7266 61.1603 64.4716 61.1603H58.9185C58.635 61.1603 58.4935 60.9903 58.4935 60.7069Z" fill="#FF9A00"/>
</g>
</g>
<defs>
<filter id="filter0_d_176_252" x="-5.7" y="-5.7" width="106.4" height="106.4" filterUnits="userSpaceOnUse" color-interpolation-filters="sRGB">
<feFlood flood-opacity="0" result="BackgroundImageFix"/>
<feColorMatrix in="SourceAlpha" type="matrix" values="0 0 0 0 0 0 0 0 0 0 0 0 0 0 0 0 0 0 127 0" result="hardAlpha"/>
<feOffset/>
<feGaussianBlur stdDeviation="9.6"/>
<feComposite in2="hardAlpha" operator="out"/>
<feColorMatrix type="matrix" values="0 0 0 0 0.509615 0 0 0 0 0.178365 0 0 0 0 0 0 0 0 0.4 0"/>
<feBlend mode="normal" in2="BackgroundImageFix" result="effect1_dropShadow_176_252"/>
<feBlend mode="normal" in="SourceGraphic" in2="effect1_dropShadow_176_252" result="shape"/>
</filter>
<clipPath id="clip0_176_252">
<rect width="94" height="94" rx="25" fill="white"/>
</clipPath>
</defs>
</svg>
