<svg width="94" height="94" viewBox="0 0 94 94" fill="none" xmlns="http://www.w3.org/2000/svg">
<rect width="94" height="94" rx="25" fill="#330000"/>
<g clip-path="url(#clip0_90_521)">
<path d="M72.2031 1H22.7969C10.7588 1 1 10.7588 1 22.7969V72.2031C1 84.2412 10.7588 94 22.7969 94H72.2031C84.2412 94 94 84.2412 94 72.2031V22.7969C94 10.7588 84.2412 1 72.2031 1Z" fill="#330000"/>
<path d="M45.9499 56.3397H31.5349L28.5898 65.4461C28.5124 65.7948 28.2025 66.0273 27.8538 65.9885H20.5686C20.1424 65.9885 20.0262 65.756 20.1424 65.291L32.6201 29.3697C32.7363 28.9825 32.8526 28.556 33.0073 28.091C33.1624 27.2772 33.2398 26.425 33.2398 25.5723C33.2013 25.3787 33.3561 25.1847 33.5501 25.1462H43.5861C43.8963 25.1462 44.0511 25.2625 44.0899 25.4561L58.2336 65.3687C58.3498 65.7948 58.2336 65.9885 57.8463 65.9885H49.7473C49.4763 66.0273 49.2049 65.8337 49.1276 65.5623L45.9499 56.3397ZM33.7825 48.4736H43.6249C43.3924 47.6598 43.0825 46.691 42.7338 45.6836C42.385 44.6373 42.0363 43.5137 41.6876 42.3512C41.2999 41.1498 40.9512 39.9873 40.5636 38.786C40.1763 37.585 39.8276 36.461 39.5173 35.3373C39.2074 34.2526 38.9361 33.2448 38.6651 32.3148H38.5873C38.2386 33.9812 37.8124 35.6476 37.27 37.3136C36.6888 39.1736 36.1076 41.111 35.4874 43.0487C34.9871 44.8776 34.4184 46.6872 33.7825 48.4736ZM66.8749 31.9272C65.5962 31.9661 64.3563 31.4622 63.4263 30.5711C62.5352 29.6022 62.0702 28.3235 62.1087 27.0062C62.0702 25.6886 62.5737 24.4487 63.5037 23.5572C64.4337 22.6657 65.6739 22.2011 66.9527 22.2011C68.4639 22.2011 69.6264 22.6661 70.4787 23.5572C71.3376 24.4966 71.7963 25.7339 71.7574 27.0062C71.7963 28.3235 71.3313 29.6022 70.4013 30.5711C69.5102 31.5011 68.1925 32.005 66.8749 31.9272ZM62.5352 65.5623V35.725C62.5352 35.3373 62.6899 35.1822 63.0387 35.1822H70.7112C71.0599 35.1822 71.215 35.3762 71.215 35.725V65.5623C71.215 65.9885 71.0599 66.1825 70.7112 66.1825H63.1164C62.7288 66.1825 62.5352 65.95 62.5352 65.5623Z" fill="#FF9A00"/>
</g>
<defs>
<clipPath id="clip0_90_521">
<rect width="93" height="93" fill="white" transform="translate(1 1)"/>
</clipPath>
</defs>
</svg>
