<svg width="94" height="94" viewBox="0 0 94 94" fill="none" xmlns="http://www.w3.org/2000/svg">
<rect width="94" height="94" rx="25" fill="#4CA84C" fill-opacity="0.15"/>
<path d="M48.8213 88.125L46.6152 87.3936C46.6152 87.3936 46.909 76.2311 42.8699 75.4468C40.2261 72.3683 43.2606 -55.9799 52.925 75.0091C51.089 75.9362 49.685 77.5403 49.0093 79.4829C48.6432 82.349 48.5802 85.2457 48.8213 88.125Z" fill="url(#paint0_linear_18_98)"/>
<path d="M50.0139 77.3414C55.8884 72.9205 60.3873 66.9228 62.9874 60.0457C65.5874 53.1685 66.1818 45.6946 64.7014 38.493C60.3832 19.4433 50.1578 13.1805 49.0563 10.7894C48.1088 9.29879 47.2977 7.72576 46.6328 6.08942L47.4465 59.1671C47.4465 59.1671 45.7604 75.388 50.0139 77.3414Z" fill="url(#paint1_linear_18_98)"/>
<path d="M45.493 78.0464C45.493 78.0464 27.5126 65.8 28.5525 44.1359C28.6495 37.6048 30.1469 31.1706 32.9438 25.2678C35.7406 19.3651 39.7716 14.1313 44.7645 9.91994C45.3472 9.42353 45.8102 8.80191 46.1189 8.1015C46.4277 7.40109 46.5742 6.63998 46.5476 5.875C47.6668 8.28375 47.4846 41.8388 47.6021 45.7633C48.0575 61.0295 46.7532 75.1647 45.493 78.0464Z" fill="url(#paint2_linear_18_98)"/>
<defs>
<linearGradient id="paint0_linear_18_98" x1="33.9917" y1="47.7412" x2="59.3473" y2="56.3454" gradientUnits="userSpaceOnUse">
<stop offset="0.231" stop-color="#999875"/>
<stop offset="0.563" stop-color="#9B9977"/>
<stop offset="0.683" stop-color="#A09F7E"/>
<stop offset="0.768" stop-color="#A9A889"/>
<stop offset="0.837" stop-color="#B7B69A"/>
<stop offset="0.896" stop-color="#C9C7B0"/>
<stop offset="0.948" stop-color="#DEDDCB"/>
<stop offset="0.994" stop-color="#F8F6EB"/>
<stop offset="1" stop-color="#FBF9EF"/>
</linearGradient>
<linearGradient id="paint1_linear_18_98" x1="43.2898" y1="5.71014" x2="54.4994" y2="75.7077" gradientUnits="userSpaceOnUse">
<stop stop-color="#48A547"/>
<stop offset="1" stop-color="#3F9143"/>
</linearGradient>
<linearGradient id="paint2_linear_18_98" x1="27.0058" y1="46.2804" x2="57.0876" y2="36.206" gradientUnits="userSpaceOnUse">
<stop stop-color="#41A247"/>
<stop offset="0.352" stop-color="#4BA74B"/>
<stop offset="0.956" stop-color="#67B554"/>
<stop offset="1" stop-color="#69B655"/>
</linearGradient>
</defs>
</svg>
