<svg width="94" height="94" viewBox="0 0 94 94" fill="none" xmlns="http://www.w3.org/2000/svg">
<rect width="94" height="94" rx="25" fill="#529F41" fill-opacity="0.15"/>
<path d="M47 84C45.9429 84 44.96 83.7251 44.042 83.2494L34.6796 77.8808C33.2733 77.1332 33.978 76.8614 34.4015 76.7255C36.2993 76.1139 36.6516 75.978 38.6236 74.8876C38.8338 74.7516 39.1182 74.8196 39.3284 74.9555L46.5085 79.104C46.7867 79.2399 47.1422 79.2399 47.3524 79.104L75.4395 63.3997C75.7176 63.2638 75.8598 62.9919 75.8598 62.6521V31.3115C75.8598 30.9717 75.7207 30.6999 75.4395 30.5639L47.3524 14.9307C47.0711 14.7948 46.7187 14.7948 46.5085 14.9307L18.4215 30.5639C18.1402 30.6999 17.998 31.0397 17.998 31.3115V62.6521C17.998 62.924 18.1402 63.2638 18.4215 63.3997L26.0931 67.6841C30.2473 69.7228 32.8498 67.3443 32.8498 64.9658V34.0329C32.8498 33.6251 33.2022 33.2174 33.6967 33.2174H37.2853C37.7087 33.2174 38.1291 33.5572 38.1291 34.0329V64.9627C38.1291 70.3344 35.1031 73.4604 29.8238 73.4604C28.2042 73.4604 26.9369 73.4604 23.3484 71.7615L15.958 67.6841C15.0681 67.1939 14.325 66.4757 13.8051 65.6032C13.2851 64.7307 13.0073 63.7355 13 62.7201V31.3794C13 29.3407 14.1251 27.4379 15.958 26.4186L44.0451 10.7112C44.9599 10.2437 45.9726 10 47 10C48.0274 10 49.0401 10.2437 49.9549 10.7112L78.0451 26.4155C79.8749 27.4348 81 29.3376 81 31.3763V62.717C81 64.7557 79.8749 66.6585 78.0451 67.681L49.958 83.3822C49.0244 83.7867 48.0175 83.9949 47 83.9938M55.6576 62.4421C43.3404 62.4421 40.8058 57.0055 40.8058 52.3813C40.8058 51.9736 41.1582 51.5658 41.6496 51.5658H45.3093C45.7327 51.5658 46.082 51.8377 46.082 52.2454C46.6476 55.8471 48.2673 57.614 55.7287 57.614C61.6416 57.614 64.1762 56.3228 64.1762 53.2648C64.1762 51.4979 63.4715 50.2067 54.2513 49.3232C46.5765 48.5726 41.7918 46.9447 41.7918 41.0294C41.7918 35.5217 46.5765 32.2567 54.6036 32.2567C63.6136 32.2567 68.0491 35.2499 68.6116 41.7769C68.6048 41.9978 68.5303 42.2112 68.3984 42.3885C68.2593 42.5244 68.0491 42.6603 67.8358 42.6603H64.1762C63.9984 42.656 63.8269 42.594 63.6875 42.4837C63.548 42.3734 63.4484 42.2207 63.4035 42.0487C62.5565 38.3111 60.3744 37.0848 54.6036 37.0848C48.1251 37.0848 47.3524 39.2594 47.3524 40.8935C47.3524 42.8642 48.2673 43.4758 56.996 44.5632C65.6536 45.6505 69.7367 47.2135 69.7367 53.0578C69.6656 59.0442 64.5996 62.4421 55.6576 62.4421Z" fill="#529F41"/>
</svg>
