<svg width="94" height="94" viewBox="0 0 94 94" fill="none" xmlns="http://www.w3.org/2000/svg">
<g clip-path="url(#clip0_90_507)">
<rect width="94" height="94" rx="25" fill="#001E36"/>
<path d="M16.6461 1.17499H77.3539C86.5586 1.17499 94 8.61641 94 17.8211V76.1789C94 85.3836 86.5586 92.825 77.3539 92.825H16.6461C7.44142 92.825 0 85.3836 0 76.1789V17.8211C0 8.61641 7.44142 1.17499 16.6461 1.17499Z" fill="#001E36"/>
<path d="M33.6836 24.4789C32.5086 24.4789 31.3336 24.4789 30.1197 24.5186C28.905 24.5575 27.7689 24.5575 26.7114 24.5971C25.6539 24.6361 24.675 24.6361 23.735 24.675C22.8339 24.7139 22.2075 24.7139 21.5414 24.7139C21.2675 24.7139 21.15 24.8703 21.15 25.145V65.4475C21.15 65.8 21.3064 65.9571 21.62 65.9571H29.2186C29.4925 65.9175 29.6886 65.6825 29.6489 65.4086V52.8361C30.3929 52.8361 30.9414 52.8361 31.3336 52.875C31.725 52.9139 32.3514 52.9139 33.2914 52.9139C36.5036 52.9139 39.4411 52.5614 42.1039 51.5825C44.65 50.6425 46.8436 48.9975 48.41 46.8039C49.9767 44.6106 50.76 41.8297 50.76 38.4614C50.76 36.6989 50.4472 35.015 49.8597 33.37C49.2372 31.6941 48.2619 30.1714 47 28.905C45.5106 27.458 43.7177 26.3607 41.7514 25.6928C39.5579 24.8703 36.895 24.4789 33.6836 24.4789ZM34.5575 32.1935C35.9528 32.22 37.3114 32.4638 38.5789 32.9778C39.715 33.4089 40.655 34.1925 41.3211 35.2103C41.9458 36.2637 42.2583 37.473 42.2222 38.6971C42.2222 40.42 41.83 41.7521 41.0075 42.7311C40.1454 43.71 39.0489 44.4546 37.7961 44.8071C36.3464 45.2771 34.8189 45.5114 33.2914 45.5114H31.2154C30.7454 45.5114 30.2372 45.4725 29.6886 45.4336V32.2736C29.9625 32.2339 30.5111 32.195 31.2947 32.2346C32.0386 32.195 32.9389 32.195 33.9575 32.195C34.1583 32.1901 34.3582 32.1896 34.5575 32.1935ZM67.4061 34.1932C64.625 34.1932 62.3139 34.6236 60.4736 35.5636C58.7897 36.3471 57.34 37.6 56.3611 39.1664C55.4997 40.6161 55.0289 42.2214 55.0289 43.9061C54.9955 45.2916 55.305 46.664 55.93 47.9011C56.6625 49.2183 57.6796 50.3555 58.9072 51.23C60.6301 52.4084 62.4998 53.3565 64.4686 54.05C66.3875 54.7939 67.68 55.3814 68.3072 55.8903C68.9336 56.4 69.2472 56.9089 69.2472 57.4575C69.2472 58.1625 68.8161 58.8286 68.1897 59.1025C67.4847 59.455 66.4272 59.6511 64.9386 59.6511C63.3722 59.6511 61.805 59.455 60.3164 59.0636C58.6072 58.6818 56.9685 58.0343 55.46 57.1446C55.3425 57.0661 55.225 57.0271 55.1075 57.1057C54.99 57.1836 54.9511 57.34 54.9511 57.4575V64.2725C54.9122 64.5861 55.1075 64.86 55.3822 65.0164C56.6523 65.6098 57.9958 66.0313 59.3772 66.27C61.1397 66.6225 62.9014 66.7789 64.7029 66.7789C67.5229 66.7789 69.8736 66.3486 71.7925 65.5261C73.555 64.8211 75.0825 63.6071 76.1789 62.04C77.2058 60.4993 77.7387 58.6823 77.7064 56.8311C77.7451 55.4326 77.4357 54.0465 76.8061 52.7971C76.0614 51.465 75.0039 50.3686 73.7114 49.5461C71.8206 48.3586 69.7961 47.3988 67.68 46.6864C66.7351 46.2953 65.8072 45.8641 64.8989 45.3939C64.39 45.12 63.92 44.7675 63.5675 44.3364C63.3325 44.0228 63.1761 43.6711 63.1761 43.3186C63.1761 42.9661 63.2936 42.5746 63.4889 42.2611C63.7636 41.8696 64.1939 41.595 64.7029 41.4775C65.4475 41.2821 66.27 41.1639 67.0529 41.2028C68.5414 41.2028 69.9904 41.3989 71.44 41.7125C72.7722 41.9864 74.025 42.4175 75.2 43.0446C75.3565 43.1225 75.5525 43.1225 75.905 43.0446C75.9662 42.9993 76.0159 42.9401 76.0499 42.872C76.084 42.8039 76.1015 42.7287 76.1011 42.6525V36.2686C76.1011 36.1114 76.0614 35.955 76.0225 35.7986C75.9439 35.6421 75.7875 35.485 75.6311 35.4461C74.5508 35.0045 73.419 34.7018 72.2625 34.545C70.6543 34.3108 69.0313 34.1938 67.4061 34.1932Z" fill="#31A8FF"/>
</g>
<defs>
<clipPath id="clip0_90_507">
<rect width="94" height="94" rx="25" fill="white"/>
</clipPath>
</defs>
</svg>
