<svg width="94" height="94" viewBox="0 0 94 94" fill="none" xmlns="http://www.w3.org/2000/svg">
<rect width="94" height="94" rx="25" fill="#764ABC" fill-opacity="0.15"/>
<g clip-path="url(#clip0_90_491)">
<mask id="mask0_90_491" style="mask-type:luminance" maskUnits="userSpaceOnUse" x="18" y="18" width="58" height="58">
<path d="M18 18H76V76H18V18Z" fill="white"/>
</mask>
<g mask="url(#mask0_90_491)">
<path d="M58.1892 58.0272C60.3279 57.8049 61.9519 55.9417 61.8794 53.7062C61.8432 52.6318 61.3929 51.613 60.6227 50.863C59.8524 50.113 58.8219 49.69 57.7469 49.6825H57.5971C55.3085 49.755 53.5371 51.6932 53.6096 54.0035C53.6869 55.1224 54.1292 56.0891 54.7937 56.7585C52.2828 61.7537 48.4452 65.4029 42.6862 68.4576C38.7761 70.5456 34.7161 71.2899 30.6585 70.7679C27.3356 70.3208 24.7522 68.8297 23.1282 66.372C20.7671 62.7228 20.5472 58.7716 22.5385 54.8227C23.9402 51.9928 26.1562 49.9048 27.5579 48.8632C27.1778 47.6121 26.8576 46.3435 26.5985 45.0618C15.8951 52.887 17.0043 63.4672 20.2475 68.46C22.6835 72.1865 27.628 74.4968 33.0921 74.4968C34.5837 74.5057 36.0707 74.3303 37.5194 73.9748C46.9686 72.114 54.1267 66.4493 58.1867 58.0297M71.1763 48.7907C65.5672 42.1594 57.2998 38.5078 47.8531 38.5078H46.6713C46.3341 37.8375 45.8178 37.2738 45.1796 36.8792C44.5414 36.4846 43.8063 36.2746 43.056 36.2724H42.9062C40.62 36.3473 38.8462 38.2855 38.9211 40.5958C38.9936 42.8312 40.8399 44.6172 43.0536 44.6172H43.2034C43.983 44.5771 44.7357 44.3183 45.375 43.8704C46.0144 43.4225 46.5148 42.8036 46.8187 42.0845H48.1479C53.757 42.0845 59.0712 43.723 63.8683 46.9275C67.5586 49.3877 70.2169 52.5897 71.6911 56.4661C72.9477 59.5932 72.8752 62.6479 71.5461 65.2579C69.4774 69.2067 66.0095 71.3672 61.4323 71.3672C58.4816 71.3672 55.6758 70.4731 54.1992 69.8012C53.137 70.7492 52.0288 71.6445 50.8787 72.4837C54.0518 73.9748 57.2998 74.7941 60.4004 74.7941C67.4861 74.7941 72.7254 70.8452 74.7192 66.8964C76.8579 62.5754 76.7105 55.1248 71.1763 48.7907ZM33.6842 59.2936C33.7567 61.529 35.603 63.3173 37.8167 63.3173H37.9641C40.2527 63.2448 42.0241 61.3067 41.9516 58.9963C41.9154 57.9219 41.4651 56.903 40.6948 56.1531C39.9246 55.4031 38.8941 54.9801 37.8191 54.9726H37.6692C37.4936 54.9588 37.3171 54.9835 37.1521 55.0451C34.1264 49.9797 32.8722 44.4673 33.3144 38.5054C33.6092 34.0346 35.0858 30.1607 37.6692 26.9562C39.8104 24.2012 43.9429 22.8599 46.7487 22.785C54.5714 22.6352 57.8919 32.471 58.1142 36.4198C59.0737 36.6422 60.6977 37.1642 61.8045 37.5363C60.9176 25.4675 53.5395 19.2083 46.4514 19.2083C39.8104 19.2083 33.6842 24.0513 31.2482 31.2047C27.8527 40.7408 30.0664 49.9048 34.2013 57.1331C33.8316 57.6551 33.6092 58.4743 33.6842 59.2936Z" fill="#764ABC"/>
</g>
</g>
<defs>
<clipPath id="clip0_90_491">
<rect width="58" height="58" fill="white" transform="translate(18 18)"/>
</clipPath>
</defs>
</svg>
