<svg width="94" height="94" viewBox="0 0 94 94" fill="none" xmlns="http://www.w3.org/2000/svg">
<rect width="94" height="94" rx="25" fill="#38BDF8" fill-opacity="0.15"/>
<path d="M47 23.5C36.5425 23.5 30.0409 28.7092 27.4167 39.1667C31.3334 33.9575 35.9159 31.9992 41.125 33.2917C44.1017 34.0358 46.2559 36.19 48.6059 38.5792C52.4442 42.4958 56.7917 47 66.5834 47C77.0409 47 83.5425 41.7908 86.1667 31.3333C82.25 36.5425 77.6675 38.5008 72.4584 37.2083C69.4817 36.4642 67.3667 34.31 64.9775 31.9208C61.1392 28.0042 56.7917 23.5 47 23.5ZM27.4167 47C16.9592 47 10.4575 52.2092 7.83337 62.6667C11.75 57.4575 16.3325 55.4992 21.5417 56.7917C24.5184 57.5358 26.6334 59.69 29.0225 62.0792C32.8609 65.9958 37.2084 70.5 47 70.5C57.4575 70.5 63.9592 65.2908 66.5834 54.8333C62.6667 60.0425 58.0842 62.0008 52.875 60.7083C49.8984 59.9642 47.7834 57.81 45.3942 55.4208C41.5559 51.5042 37.2084 47 27.4167 47Z" fill="#38BDF8"/>
</svg>
