<svg width="94" height="94" viewBox="0 0 94 94" fill="none" xmlns="http://www.w3.org/2000/svg">
<g clip-path="url(#clip0_18_113)">
<mask id="mask0_18_113" style="mask-type:luminance" maskUnits="userSpaceOnUse" x="0" y="0" width="94" height="94">
<path d="M0 0H94V94H0V0Z" fill="white"/>
</mask>
<g mask="url(#mask0_18_113)">
<path d="M91.7636 1.37439e-05H2.2325C1.939 1.32923e-05 1.64837 0.0578882 1.37726 0.170327C1.10614 0.282765 0.859859 0.44756 0.652501 0.655282C0.445143 0.863004 0.28078 1.10958 0.168817 1.38089C0.0568539 1.6522 -0.000511481 1.94292 3.44203e-06 2.23643V91.7675C-0.000512512 92.0614 0.056982 92.3524 0.16919 92.624C0.281397 92.8955 0.446111 93.1423 0.653884 93.3501C0.861657 93.5578 1.1084 93.7225 1.37997 93.8347C1.65154 93.947 1.94258 94.0044 2.23642 94.0039H91.7675C92.0613 94.0044 92.3524 93.947 92.624 93.8347C92.8955 93.7225 93.1423 93.5578 93.35 93.3501C93.5578 93.1423 93.7225 92.8955 93.8347 92.624C93.9469 92.3524 94.0044 92.0614 94.0039 91.7675V2.23251C94.0039 1.93868 93.9459 1.64773 93.8332 1.37636C93.7206 1.10499 93.5554 0.858531 93.3473 0.651122C93.1391 0.443712 92.8921 0.279431 92.6203 0.167699C92.3486 0.0559672 92.0574 -0.00101726 91.7636 1.37439e-05ZM55.9535 50.2352H44.7636V85.0465H35.8101V50.2352H24.6202V42.5233H55.9535V50.2352ZM58.4602 83.0568V73.7548C58.4602 73.7548 63.544 77.5853 69.6423 77.5853C75.7405 77.5853 75.5055 73.5981 75.5055 73.0498C75.5055 67.2648 58.2252 67.2648 58.2252 54.4417C58.2252 37.0047 83.4054 43.8863 83.4054 43.8863L83.0921 52.1739C83.0921 52.1739 78.8699 49.3578 74.0994 49.3578C69.3289 49.3578 67.6095 51.6295 67.6095 54.05C67.6095 60.3049 85.0465 59.6822 85.0465 72.2703C85.0465 91.6578 58.4602 83.0608 58.4602 83.0608" fill="url(#paint0_linear_18_113)"/>
</g>
</g>
<defs>
<linearGradient id="paint0_linear_18_113" x1="47.002" y1="0" x2="47.002" y2="94.0039" gradientUnits="userSpaceOnUse">
<stop stop-color="#2D79C7"/>
<stop offset="1" stop-color="#1569BF"/>
</linearGradient>
<clipPath id="clip0_18_113">
<rect width="94" height="94" rx="25" fill="white"/>
</clipPath>
</defs>
</svg>
