<svg width="94" height="94" viewBox="0 0 94 94" fill="none" xmlns="http://www.w3.org/2000/svg">
<rect width="94" height="94" rx="25" fill="url(#paint0_linear_90_533)" fill-opacity="0.15"/>
<path d="M79.1068 26.2126L48.7159 80.5564C48.5732 80.812 48.3651 81.025 48.1129 81.1737C47.8608 81.3224 47.5736 81.4014 47.2809 81.4026C46.9882 81.4037 46.7004 81.3271 46.4471 81.1804C46.1937 81.0337 45.9839 80.8224 45.8392 80.5679L14.847 26.2172C14.6912 25.9445 14.6164 25.633 14.6314 25.3193C14.6464 25.0056 14.7505 24.7027 14.9317 24.446C15.1128 24.1894 15.3633 23.9898 15.6539 23.8706C15.9445 23.7514 16.263 23.7175 16.5722 23.7729L46.9954 29.2119C47.1888 29.2475 47.3871 29.2475 47.5805 29.2119L77.3678 23.7822C77.6757 23.7259 77.9933 23.7583 78.2836 23.8757C78.5738 23.9931 78.8246 24.1905 79.0069 24.445C79.1892 24.6995 79.2954 25.0006 79.313 25.3132C79.3307 25.6257 79.2592 25.9392 79.1068 26.2126Z" fill="url(#paint1_linear_90_533)"/>
<path d="M61.4856 16.6412L38.9988 21.0465C38.8193 21.0827 38.6568 21.1772 38.5364 21.3151C38.416 21.4531 38.3445 21.6269 38.3328 21.8096L36.9499 45.1751C36.9423 45.3033 36.9647 45.4315 37.0153 45.5495C37.0659 45.6675 37.1433 45.7721 37.2414 45.855C37.3395 45.9378 37.4556 45.9966 37.5805 46.0267C37.7053 46.0569 37.8354 46.0574 37.9605 46.0284L44.2204 44.5831C44.3553 44.552 44.4958 44.5552 44.6291 44.5926C44.7624 44.6299 44.8841 44.7002 44.9832 44.7969C45.0822 44.8936 45.1553 45.0137 45.1958 45.146C45.2362 45.2784 45.2428 45.4188 45.2148 45.5544L43.3556 54.6633C43.3269 54.8035 43.3351 54.9488 43.3795 55.0849C43.4239 55.221 43.503 55.3432 43.6088 55.4395C43.7147 55.5358 43.8438 55.6029 43.9835 55.6343C44.1231 55.6657 44.2686 55.6602 44.4054 55.6184L48.2719 54.4436C48.4091 54.4017 48.5547 54.3961 48.6946 54.4276C48.8345 54.4591 48.9638 54.5264 49.0698 54.623C49.1757 54.7197 49.2547 54.8422 49.2989 54.9786C49.3431 55.115 49.351 55.2606 49.3218 55.401L46.3641 69.7084C46.1791 70.6034 47.3701 71.0913 47.8673 70.3259L48.1979 69.8125L66.5245 33.2403C66.5933 33.1025 66.6222 32.9482 66.6079 32.7949C66.5936 32.6415 66.5366 32.4952 66.4435 32.3725C66.3504 32.2498 66.2249 32.1556 66.081 32.1006C65.9372 32.0455 65.7808 32.0318 65.6296 32.0609L59.1846 33.3027C59.0459 33.3293 58.9027 33.3198 58.7687 33.2752C58.6347 33.2306 58.5143 33.1523 58.4192 33.0479C58.3241 32.9435 58.2573 32.8164 58.2253 32.6788C58.1933 32.5413 58.1972 32.3978 58.2365 32.2621L62.4406 17.6795C62.4803 17.5434 62.4842 17.3994 62.452 17.2613C62.4198 17.1233 62.3526 16.9958 62.2569 16.8913C62.1611 16.7867 62.0401 16.7086 61.9054 16.6644C61.7707 16.6202 61.6269 16.6114 61.4879 16.6389" fill="url(#paint2_linear_90_533)"/>
<defs>
<linearGradient id="paint0_linear_90_533" x1="47" y1="0" x2="47" y2="94" gradientUnits="userSpaceOnUse">
<stop stop-color="#47C9FF"/>
<stop offset="0.5" stop-color="#8D71FE"/>
<stop offset="1" stop-color="#BD34FE"/>
</linearGradient>
<linearGradient id="paint1_linear_90_533" x1="14.0897" y1="21.8301" x2="51.9111" y2="73.1945" gradientUnits="userSpaceOnUse">
<stop stop-color="#41D1FF"/>
<stop offset="1" stop-color="#BD34FE"/>
</linearGradient>
<linearGradient id="paint2_linear_90_533" x1="45.2471" y1="17.8362" x2="52.0888" y2="64.7696" gradientUnits="userSpaceOnUse">
<stop stop-color="#FFEA83"/>
<stop offset="0.083" stop-color="#FFDD35"/>
<stop offset="1" stop-color="#FFA800"/>
</linearGradient>
</defs>
</svg>
