<svg width="94" height="94" viewBox="0 0 94 94" fill="none" xmlns="http://www.w3.org/2000/svg">
<rect width="94" height="94" rx="25" fill="#21759B" fill-opacity="0.15"/>
<path d="M47 13C28.266 13 13 28.266 13 47C13 65.734 28.266 81 47 81C65.734 81 81 65.734 81 47C81 28.266 65.734 13 47 13ZM16.434 47C16.434 42.58 17.386 38.364 19.086 34.556L33.672 74.506C23.472 69.542 16.434 59.104 16.434 47ZM47 77.566C44.008 77.566 41.118 77.124 38.364 76.308L47.544 49.652L56.928 75.39C56.996 75.526 57.064 75.696 57.132 75.798C53.97 76.954 50.57 77.566 47 77.566ZM51.216 32.652C53.052 32.55 54.718 32.346 54.718 32.346C56.35 32.142 56.18 29.728 54.514 29.83C54.514 29.83 49.55 30.204 46.354 30.204C43.362 30.204 38.296 29.83 38.296 29.83C36.664 29.762 36.46 32.278 38.126 32.38C38.126 32.38 39.69 32.584 41.322 32.686L46.082 45.742L39.384 65.802L28.266 32.652C30.102 32.584 31.768 32.38 31.768 32.38C33.4 32.176 33.23 29.762 31.564 29.864C31.564 29.864 26.6 30.238 23.404 30.238C22.826 30.238 22.146 30.238 21.432 30.204C26.94 21.908 36.324 16.434 47 16.434C54.956 16.434 62.198 19.46 67.638 24.458C67.502 24.458 67.366 24.424 67.23 24.424C64.238 24.424 62.096 27.042 62.096 29.864C62.096 32.38 63.558 34.522 65.088 37.038C66.244 39.078 67.604 41.696 67.604 45.47C67.604 48.088 66.584 51.114 65.292 55.364L62.232 65.564L51.216 32.652ZM73.826 32.346C77.6432 39.3355 78.5816 47.5389 76.4416 55.2099C74.3016 62.8809 69.2521 69.4138 62.368 73.418L71.718 46.422C73.452 42.07 74.03 38.568 74.03 35.474C74.03 34.352 73.962 33.298 73.826 32.346Z" fill="#33A1D3"/>
</svg>
