<svg width="35" height="35" viewBox="0 0 35 35" fill="none" xmlns="http://www.w3.org/2000/svg">
<path d="M31 24.5685C30.607 24.7206 30.1731 24.7203 29.7802 24.5678C29.3874 24.4152 29.063 24.121 28.8682 23.7407C27.6447 21.8705 26.2936 20.0846 24.9951 18.2605L24.432 17.494C22.8857 19.6095 21.3394 21.6406 19.9282 23.7484C19.7444 24.1119 19.4375 24.3946 19.0647 24.5441C18.6918 24.6936 18.2785 24.6996 17.9016 24.5609L23.7039 16.6126L18.3069 9.43057C18.6954 9.28734 19.1204 9.28538 19.5102 9.42501C19.8999 9.56465 20.2305 9.83732 20.4462 10.197C21.6997 12.0674 23.0885 13.8532 24.4695 15.7465C25.8583 13.8685 27.2319 12.075 28.5155 10.22C28.7002 9.86248 29.0073 9.58679 29.3783 9.44546C29.7492 9.30413 30.1581 9.30702 30.5271 9.45359L28.4328 12.2896C27.4946 13.5542 26.5713 14.8266 25.5955 16.0606C25.5169 16.1325 25.454 16.2205 25.4109 16.3189C25.3679 16.4173 25.3456 16.5239 25.3456 16.6317C25.3456 16.7395 25.3679 16.846 25.4109 16.9444C25.454 17.0428 25.5169 17.1308 25.5955 17.2027C27.3896 19.6325 29.1685 22.0698 31 24.5685ZM4 16.5129C4.15768 15.7465 4.25515 14.911 4.47291 14.1292C5.77147 9.4154 11.0633 7.4531 14.7039 10.3735C16.8357 12.0828 17.3686 14.5049 17.2636 17.2335H5.25361C5.0584 22.1083 8.50374 25.0515 12.9099 23.5492C13.6246 23.2882 14.2645 22.8495 14.7716 22.2727C15.2788 21.696 15.6373 20.9993 15.8148 20.2456C16.0475 19.4792 16.4228 19.3489 17.1359 19.5711C17.0184 20.5043 16.6953 21.398 16.1909 22.1853C15.6865 22.9725 15.0138 23.6328 14.2236 24.1164C12.9178 24.8456 11.4196 25.1346 9.94335 24.9418C8.46707 24.7491 7.08828 24.0846 6.00421 23.0433C4.9317 21.8119 4.2832 20.256 4.15768 18.6131C4.15768 18.3525 4.06007 18.0919 4.00756 17.8466C4.00259 17.4021 4.00007 16.9575 4 16.5129ZM5.26859 16.1833H16.1302C16.0625 12.6499 13.8782 10.1435 10.9659 10.1206C7.72317 10.0746 5.40373 12.5272 5.26103 16.168L5.26859 16.1833Z" fill="#0F0F0F"/>
</svg>
