<svg width="35" height="35" viewBox="0 0 35 35" fill="none" xmlns="http://www.w3.org/2000/svg">
<path fill-rule="evenodd" clip-rule="evenodd" d="M20.625 7.08333C21.4714 7.08328 22.2977 7.34097 22.994 7.82212C23.6903 8.30327 24.2235 8.98505 24.5228 9.77674C24.822 10.5684 24.8731 11.4325 24.6692 12.2539C24.4653 13.0753 24.016 13.8152 23.3812 14.375C24.1577 15.0581 24.6523 16.0056 24.7689 17.0332C24.8856 18.0607 24.6159 19.0949 24.0124 19.9347C23.4089 20.7745 22.5147 21.3599 21.5035 21.577C20.4924 21.7941 19.4367 21.6274 18.5417 21.1094V23.75C18.5416 24.4462 18.3671 25.1314 18.0341 25.7428C17.7011 26.3542 17.2201 26.8724 16.6352 27.2501C16.0504 27.6278 15.3801 27.8529 14.6858 27.9048C13.9916 27.9568 13.2953 27.8339 12.6607 27.5475C12.0262 27.261 11.4735 26.8201 11.0532 26.265C10.6329 25.71 10.3584 25.0584 10.2547 24.37C10.1511 23.6815 10.2217 22.978 10.4599 22.3238C10.6982 21.6696 11.0966 21.0856 11.6187 20.625C11.1754 20.234 10.8204 19.7531 10.5772 19.2143C10.334 18.6755 10.2083 18.0911 10.2083 17.5C10.2083 16.9089 10.334 16.3245 10.5772 15.7857C10.8204 15.2469 11.1754 14.766 11.6187 14.375C10.984 13.8152 10.5347 13.0753 10.3308 12.2539C10.1269 11.4325 10.178 10.5684 10.4772 9.77674C10.7765 8.98505 11.3097 8.30327 12.006 7.82212C12.7023 7.34097 13.5286 7.08328 14.375 7.08333H20.625ZM16.4583 21.6667H14.375C13.963 21.6667 13.5602 21.7889 13.2176 22.0178C12.875 22.2467 12.6079 22.5721 12.4503 22.9527C12.2926 23.3334 12.2513 23.7523 12.3317 24.1564C12.4121 24.5606 12.6105 24.9318 12.9019 25.2231C13.1932 25.5145 13.5644 25.7129 13.9686 25.7933C14.3727 25.8737 14.7916 25.8324 15.1723 25.6747C15.5529 25.5171 15.8783 25.25 16.1072 24.9074C16.3361 24.5648 16.4583 24.162 16.4583 23.75V21.6667ZM16.4583 15.4167H14.375C13.8225 15.4167 13.2926 15.6362 12.9019 16.0269C12.5112 16.4176 12.2917 16.9475 12.2917 17.5C12.2917 18.0525 12.5112 18.5824 12.9019 18.9731C13.2926 19.3638 13.8225 19.5833 14.375 19.5833H16.4583V15.4167ZM20.625 15.4167C20.0725 15.4167 19.5426 15.6362 19.1519 16.0269C18.7612 16.4176 18.5417 16.9475 18.5417 17.5C18.5417 18.0525 18.7612 18.5824 19.1519 18.9731C19.5426 19.3638 20.0725 19.5833 20.625 19.5833C21.1775 19.5833 21.7074 19.3638 22.0981 18.9731C22.4888 18.5824 22.7083 18.0525 22.7083 17.5C22.7083 16.9475 22.4888 16.4176 22.0981 16.0269C21.7074 15.6362 21.1775 15.4167 20.625 15.4167ZM20.625 9.16667H18.5417V13.3333H20.625C21.1656 13.3358 21.686 13.1279 22.0762 12.7538C22.4664 12.3796 22.6959 11.8684 22.7162 11.3282C22.7365 10.788 22.546 10.261 22.1849 9.85863C21.8238 9.45626 21.3205 9.21 20.7812 9.17187L20.625 9.16667ZM16.4583 9.16667H14.375C13.8225 9.16667 13.2926 9.38616 12.9019 9.77686C12.5112 10.1676 12.2917 10.6975 12.2917 11.25C12.2917 11.8025 12.5112 12.3324 12.9019 12.7231C13.2926 13.1138 13.8225 13.3333 14.375 13.3333H16.4583V9.16667Z" fill="#0F0F0F"/>
</svg>
