<svg width="35" height="35" viewBox="0 0 35 35" fill="none" xmlns="http://www.w3.org/2000/svg">
<path d="M21.5043 15.086C21.0274 15.2146 20.6337 15.2835 20.2312 15.4351C19.9118 15.5223 19.588 15.6142 19.2162 15.7153L19.1899 15.7199C19.0062 15.775 18.9887 15.7796 18.818 15.5729C18.6124 15.3294 18.4637 15.1733 18.1793 15.0263C17.3174 14.5853 16.4862 14.714 15.7118 15.2422C14.7843 15.8714 14.3074 16.8038 14.3206 17.9613C14.3337 19.1096 15.0818 20.0512 16.1231 20.2074C17.0856 20.336 17.8643 19.9961 18.4768 19.2658C18.5687 19.1463 18.6518 19.0223 18.7437 18.8845C18.7787 18.8386 18.8093 18.7881 18.8443 18.733H16.2149C15.9306 18.733 15.8606 18.5492 15.9568 18.3058C16.1318 17.8603 16.4599 17.1162 16.6524 16.7441C16.6918 16.6614 16.7881 16.4777 16.9543 16.4777H21.3774C21.5743 15.8622 21.8937 15.2422 22.3224 14.6542C23.3155 13.2809 24.4793 12.5644 26.1374 12.2658C27.5286 12.0086 28.8367 12.151 30.0267 12.9961C31.103 13.7678 31.768 14.815 31.9473 16.1884C32.1792 18.1221 31.6455 19.6929 30.3417 21.0387C29.4799 21.9987 28.3774 22.6004 27.1086 22.8714C26.8636 22.9173 26.623 22.9403 26.3868 22.9633C26.2599 22.9724 26.1374 22.9862 26.0149 23C24.7768 22.9724 23.6436 22.6004 22.6899 21.7415C22.0205 21.1306 21.5568 20.3819 21.3293 19.5138C21.1674 19.8491 20.9793 20.1752 20.7168 20.483C19.7718 21.8425 18.4899 22.6877 16.8712 22.9127C15.5324 23.1011 14.2943 22.8301 13.2006 21.9711C12.1943 21.1673 11.6212 20.1109 11.4725 18.7927C11.2931 17.231 11.7306 15.7887 12.6275 14.5991C13.5987 13.2671 14.8806 12.422 16.4468 12.1234C17.7287 11.8386 18.9537 12.0361 20.0605 12.8262C20.7824 13.3268 21.2987 14.0112 21.6399 14.8426C21.723 14.9712 21.6662 15.0447 21.5043 15.086ZM6.11312 15.3432C6.05843 15.3432 6.04487 15.3157 6.07199 15.2697L6.35855 14.8839C6.38568 14.8426 6.45393 14.815 6.50861 14.815H11.3762C11.4287 14.815 11.4418 14.8563 11.4156 14.8977L11.1837 15.2697C11.1575 15.3157 11.0875 15.357 11.0481 15.357L6.11312 15.3432ZM4.05452 16.6614C4 16.6614 3.98635 16.6293 4.01365 16.588L4.29991 16.2021C4.32721 16.1608 4.39537 16.1286 4.44975 16.1286H10.6675C10.72 16.1286 10.7462 16.1746 10.7331 16.2159L10.6237 16.5604C10.6106 16.6155 10.5581 16.6477 10.5012 16.6477L4.05452 16.6614ZM7.31273 17.8924C7.28561 17.9338 7.29917 17.9751 7.35342 17.9751L10.3262 17.9889C10.3656 17.9889 10.4225 17.9475 10.4225 17.8924L10.4487 17.5479C10.4487 17.4882 10.4225 17.4469 10.3656 17.4469H7.63998C7.5853 17.4469 7.53105 17.4882 7.50348 17.5341L7.31273 17.8924ZM29.2524 17.0656C29.2436 16.9462 29.2392 16.8452 29.2217 16.7441C28.9767 15.3294 27.7342 14.5256 26.4393 14.8426C25.1705 15.1411 24.3524 15.9863 24.0549 17.332C23.8099 18.4482 24.3261 19.5781 25.3061 20.0374C26.0586 20.3819 26.8067 20.3406 27.5286 19.9501C28.6049 19.3255 29.1911 18.4482 29.2611 17.2172C29.2567 17.1621 29.2567 17.1116 29.2524 17.0656Z" fill="#0F0F0F"/>
</svg>
