<svg width="35" height="35" viewBox="0 0 35 35" fill="none" xmlns="http://www.w3.org/2000/svg">
<path d="M10.7273 23C9.9697 23 9.32606 22.7329 8.79636 22.1988C8.26667 21.6647 8.00121 21.0151 8 20.25V19.7917C8 19.3944 8.12909 19.0663 8.38727 18.8072C8.64545 18.5481 8.97091 18.4179 9.36364 18.4167C9.75636 18.4154 10.0824 18.5456 10.3418 18.8072C10.6012 19.0687 10.7297 19.3969 10.7273 19.7917V20.25H13.4545V13.375C13.4545 12.9778 13.5836 12.6496 13.8418 12.3905C14.1 12.1314 14.4255 12.0012 14.8182 12C15.2109 11.9988 15.537 12.129 15.7964 12.3905C16.0558 12.6521 16.1842 12.9802 16.1818 13.375V20.25C16.1818 21.0139 15.917 21.6635 15.3873 22.1988C14.8576 22.7342 14.2133 23.0012 13.4545 23H10.7273ZM20.7273 23C20.2121 23 19.7806 22.824 19.4327 22.472C19.0848 22.12 18.9103 21.6849 18.9091 21.1667V20.25C18.9091 20.0056 19 19.7917 19.1818 19.6083C19.3636 19.425 19.5758 19.3333 19.8182 19.3333H20.7273C20.9697 19.3333 21.1818 19.425 21.3636 19.6083C21.5455 19.7917 21.6364 20.0056 21.6364 20.25H25.2727V18.4167H20.7273C20.2121 18.4167 19.7806 18.2407 19.4327 17.8887C19.0848 17.5367 18.9103 17.1016 18.9091 16.5833V13.8333C18.9091 13.3139 19.0836 12.8788 19.4327 12.528C19.7818 12.1772 20.2133 12.0012 20.7273 12H26.1818C26.697 12 27.1291 12.176 27.4782 12.528C27.8273 12.88 28.0012 13.3151 28 13.8333V14.75C28 14.9944 27.9091 15.2083 27.7273 15.3917C27.5454 15.575 27.3333 15.6667 27.0909 15.6667H26.1818C25.9394 15.6667 25.7273 15.575 25.5454 15.3917C25.3636 15.2083 25.2727 14.9944 25.2727 14.75H21.6364V16.5833H26.1818C26.697 16.5833 27.1291 16.7593 27.4782 17.1113C27.8273 17.4633 28.0012 17.8984 28 18.4167V21.1667C28 21.6861 27.8254 22.1218 27.4764 22.4738C27.1273 22.8258 26.6958 23.0012 26.1818 23H20.7273Z" fill="black"/>
</svg>
