<svg width="35" height="35" viewBox="0 0 35 35" fill="none" xmlns="http://www.w3.org/2000/svg">
<path d="M22.8953 14.9164C21.5813 9.12189 18.4766 7.22189 18.143 6.49376C17.7766 5.97736 17.3821 5.00079 17.3821 5.00079C17.3781 5.02111 17.3781 5.03361 17.3742 5.05392V5.06642C17.3742 5.08282 17.3703 5.09064 17.3703 5.10704V5.12345H17.3664V5.17579H17.3625C17.3625 5.18361 17.3625 5.19611 17.3586 5.20001V5.22423C17.3591 5.23309 17.3578 5.23986 17.3547 5.24454V5.26486C17.3552 5.27788 17.3539 5.28881 17.3508 5.29767V5.30157C17.3502 5.31952 17.3476 5.33735 17.343 5.3547V5.36251C17.3399 5.36616 17.3386 5.37032 17.3391 5.37501V5.39142H17.3352V5.41564H17.3313V5.43204H17.3235V5.45626H17.3196V5.47657H17.3156V5.49298H17.3117V5.50939H17.3078V5.52579H17.3039V5.5422H17.3V5.5547H17.2961V5.57111H17.2922V5.58751H17.2883C17.2844 5.58751 17.2844 5.59142 17.2844 5.59142V5.59923L17.2805 5.60704C17.28 5.61538 17.2774 5.62345 17.2727 5.63126C17.2688 5.63517 17.2688 5.63517 17.2688 5.63907V5.64689H17.2649V5.6547H17.2571V5.67501H17.2492V5.68751H17.2453V5.69142H17.2414V5.69923H17.2375V5.71173H17.2336V5.71954H17.2258V5.73204H17.2219V5.73986H17.218V5.74767H17.2141V5.76017H17.2102V5.76798H17.2063V5.77189H17.2024V5.7797H17.1946V5.7922H17.1906V5.79611H17.1867V5.80392H17.1828V5.81642H17.1789V5.82032H17.175V5.82814H17.1711V5.83204H17.1672V5.84454H17.1594V5.84845H17.1555V5.85626H17.1516V5.86017H17.1477V5.86798H17.1438V5.87579C17.1399 5.87579 17.1399 5.8797 17.1399 5.8797V5.88361H17.136L17.1235 5.90392C17.1235 5.90392 17.1156 5.91173 17.1156 5.91642C17.1117 5.91642 17.1117 5.92032 17.1117 5.92032V5.92423H17.1078V5.92814H17.1039V5.93595H17.0961V5.93986H17.0922V5.94376H17.0883V5.95548H17.0844V5.95939H17.0805V5.96329H17.0766V5.97111H17.0727V5.96329H17.0649V5.9672H17.061V5.97501H17.0571V5.98282H17.0531V5.98673H17.0492V5.99064H17.0453V5.99454H17.0414V6.00236H17.0336V6.00626H17.0297V6.01407H17.0258V6.01798H17.0219V6.02189H17.018V6.03439H17.0141V6.03829H17.0102V6.0422H17.0063V6.04611H17.0024V6.05001H16.9946V6.05782H16.9906V6.06173H16.9867V6.06564H16.9828V6.07345H16.9789V6.07736H16.9711V6.08126H16.9672V6.08517H16.9633V6.09298H16.9594V6.10079H16.9555V6.1047H16.9516V6.10861H16.9438V6.11251H16.9399V6.11642H16.936V6.12423H16.9321V6.12814H16.9281V6.13595H16.9242V6.13986H16.9203V6.14376H16.9164V6.14767H16.9125V6.15157H16.9047V6.15548C16.9008 6.15548 16.9008 6.15939 16.9008 6.15939L16.8969 6.16329L16.893 6.1672V6.17501H16.8891V6.17892H16.8852V6.18282H16.8813V6.18673H16.8774L16.8696 6.19454V6.19845C16.8617 6.20236 16.8617 6.20626 16.8531 6.21486C16.8531 6.21486 16.8453 6.22267 16.8406 6.22267C16.8281 6.23048 16.8125 6.24689 16.8 6.25939C16.7922 6.26329 16.7836 6.27189 16.7758 6.27579C16.7597 6.29142 16.7432 6.30496 16.7266 6.31642C16.7024 6.34064 16.6774 6.35704 16.6492 6.38126H16.6453L16.4539 6.54845H16.45C16.275 6.70314 16.0672 6.90236 15.8313 7.13829L15.811 7.15861C14.3946 8.62345 12.161 11.6789 11.9289 16.6149C11.9047 17.0219 11.9086 17.4203 11.9328 17.807V17.8149C12.0469 19.7602 12.6571 21.4203 13.4219 22.7711C13.7227 23.3086 14.0524 23.7969 14.386 24.236C15.5336 25.75 16.7055 26.6492 17.0024 26.8688C17.4625 27.9305 17.4211 29.7617 17.4211 29.7617L18.0922 29.9852C18.0922 29.9852 17.9539 28.2149 18.1453 27.3563C18.2063 27.0914 18.3446 26.8641 18.5078 26.6688C18.6219 26.5914 18.9477 26.3555 19.3383 25.9977C19.3586 25.9774 19.3711 25.961 19.3875 25.9406C20.9703 24.4633 23.9289 20.8258 22.9156 14.9016L22.8953 14.9164Z" fill="#0F0F0F"/>
</svg>
