<svg width="35" height="35" viewBox="0 0 35 35" fill="none" xmlns="http://www.w3.org/2000/svg">
<path d="M17.5 31C17.1114 31 16.75 30.8997 16.4125 30.7261L12.9705 28.7673C12.4534 28.4946 12.7125 28.3954 12.8682 28.3458C13.5659 28.1226 13.6955 28.073 14.4205 27.6752C14.4977 27.6256 14.6023 27.6504 14.6795 27.7L17.3193 29.2136C17.4216 29.2632 17.5523 29.2632 17.6295 29.2136L27.9557 23.4837C28.058 23.4341 28.1102 23.3349 28.1102 23.2109V11.7758C28.1102 11.6518 28.0591 11.5527 27.9557 11.5031L17.6295 5.79903C17.5261 5.74944 17.3966 5.74944 17.3193 5.79903L6.99318 11.5031C6.88977 11.5527 6.8375 11.6766 6.8375 11.7758V23.2109C6.8375 23.3101 6.88977 23.4341 6.99318 23.4837L9.81364 25.0469C11.3409 25.7907 12.2977 24.9229 12.2977 24.0551V12.7687C12.2977 12.62 12.4273 12.4712 12.6091 12.4712H13.9284C14.0841 12.4712 14.2386 12.5952 14.2386 12.7687V24.054C14.2386 26.0139 13.1261 27.1545 11.1852 27.1545C10.5898 27.1545 10.1239 27.1545 8.80455 26.5346L6.0875 25.0469C5.76033 24.8681 5.48712 24.606 5.29597 24.2876C5.10483 23.9693 5.00267 23.6062 5 23.2357V11.8006C5 11.0567 5.41364 10.3625 6.0875 9.99055L16.4136 4.25947C16.7499 4.08893 17.1223 4 17.5 4C17.8777 4 18.2501 4.08893 18.5864 4.25947L28.9136 9.98943C29.5864 10.3614 30 11.0556 30 11.7995V23.2346C30 23.9784 29.5864 24.6727 28.9136 25.0458L18.5875 30.7746C18.2443 30.9222 17.8741 30.9981 17.5 30.9977M20.683 23.1343C16.1545 23.1343 15.2227 21.1507 15.2227 19.4635C15.2227 19.3147 15.3523 19.1659 15.533 19.1659H16.8784C17.0341 19.1659 17.1625 19.2651 17.1625 19.4139C17.3705 20.728 17.9659 21.3727 20.7091 21.3727C22.883 21.3727 23.8148 20.9016 23.8148 19.7858C23.8148 19.1411 23.5557 18.67 20.1659 18.3477C17.3443 18.0738 15.5852 17.4798 15.5852 15.3215C15.5852 13.312 17.3443 12.1207 20.2955 12.1207C23.608 12.1207 25.2386 13.2128 25.4455 15.5943C25.4429 15.6749 25.4156 15.7527 25.367 15.8174C25.3159 15.867 25.2386 15.9166 25.1602 15.9166H23.8148C23.7494 15.915 23.6863 15.8924 23.6351 15.8522C23.5838 15.8119 23.5472 15.7562 23.5307 15.6935C23.2193 14.3297 22.417 13.8823 20.2955 13.8823C17.9136 13.8823 17.6295 14.6757 17.6295 15.2719C17.6295 15.991 17.9659 16.2142 21.175 16.6109C24.358 17.0076 25.8591 17.5779 25.8591 19.7103C25.833 21.8945 23.9705 23.1343 20.683 23.1343Z" fill="#0F0F0F"/>
</svg>
