<svg width="35" height="35" viewBox="0 0 35 35" fill="none" xmlns="http://www.w3.org/2000/svg">
<path d="M20.7751 21.9413C20.1676 22.8282 19.506 23.6746 18.7943 24.4754C20.6912 26.3663 22.4543 27.2518 23.4328 26.6704C24.4113 26.0902 24.5462 24.0781 23.9011 21.4462C22.9339 21.6676 21.884 21.8365 20.7751 21.9413ZM19.2897 22.0415C18.4303 22.0775 17.5697 22.0775 16.7103 22.0415C17.1366 22.6148 17.5697 23.146 17.9994 23.6295C18.431 23.1457 18.8612 22.6171 19.2897 22.0415ZM25.0043 12.8432C28.026 13.7334 30 15.213 30 16.9991C30 18.7852 28.0271 20.2648 25.0054 21.1549C25.7651 24.289 25.5043 26.7846 23.9997 27.677C22.4951 28.5706 20.2614 27.5547 17.9994 25.3108C15.7386 27.5535 13.5049 28.5706 12.0003 27.677C10.4957 26.7834 10.2349 24.289 10.9946 21.1549C7.97288 20.2671 6 18.7875 6 17.0014C6 15.2153 7.97288 13.7357 10.9946 12.8456C10.2349 9.71152 10.4957 7.21592 12.0003 6.3223C13.5049 5.42985 15.7386 6.4458 17.9994 8.68974C20.2614 6.4458 22.4951 5.42985 23.9997 6.3223C25.5043 7.21592 25.7651 9.71152 25.0054 12.8456M23.9022 12.5566C24.5485 9.92356 24.4124 7.91264 23.4339 7.33126C22.4554 6.75105 20.6923 7.63651 18.7965 9.52744C19.5079 10.3282 20.1691 11.1746 20.7762 12.0615C21.8851 12.1663 22.935 12.3341 23.9022 12.5566ZM12.0989 21.4462C11.4538 24.0793 11.5887 26.0902 12.5683 26.6704C13.5468 27.2506 15.31 26.3663 17.2057 24.4754C16.4943 23.6742 15.8331 22.8274 15.2261 21.9402C14.1749 21.8432 13.1308 21.6779 12.1001 21.445M16.7125 11.959C17.572 11.923 18.4325 11.923 19.292 11.959C18.8831 11.4115 18.4519 10.8821 17.9994 10.3721C17.5686 10.8576 17.1388 11.3873 16.7103 11.9613M15.2249 12.0626C15.832 11.1758 16.4932 10.3294 17.2046 9.5286C15.3088 7.63651 13.5457 6.75105 12.5683 7.33126C11.5898 7.91264 11.4538 9.92473 12.1001 12.5566C13.0672 12.3353 14.1172 12.1675 15.2261 12.0615M20.1469 20.8229C20.9543 19.6057 21.6721 18.3284 22.2944 17.0014C21.6725 15.6745 20.9551 14.3971 20.1481 13.18C18.7188 13.0702 17.2835 13.0702 15.8542 13.18C15.0464 14.397 14.3282 15.6744 13.7056 17.0014C14.3279 18.3284 15.0457 19.6057 15.8531 20.8229C17.2824 20.9327 18.7176 20.9327 20.1469 20.8229ZM21.6039 20.6691C22.3024 20.5759 22.9638 20.4582 23.5881 20.3161C23.3836 19.6589 23.1521 19.0109 22.8942 18.3739C22.4949 19.1566 22.0648 19.9223 21.605 20.6691M14.3972 13.3326C13.6988 13.4266 13.0374 13.5446 12.413 13.6868C12.6058 14.3128 12.8374 14.9602 13.108 15.629C13.5073 14.8463 13.9374 14.0806 14.3972 13.3337M12.413 20.3172C13.0374 20.4586 13.6988 20.5763 14.3972 20.6702C13.9374 19.9234 13.5073 19.1577 13.108 18.375C12.8498 19.0121 12.6179 19.6601 12.413 20.3172ZM11.3041 20.0318C11.6012 19.0601 11.9844 18.0418 12.4493 17.0026C12.0056 16.0188 11.6231 15.007 11.3041 13.9734C8.76317 14.7144 7.13497 15.8422 7.13497 17.0026C7.13497 18.163 8.76317 19.2896 11.3041 20.0318ZM23.5893 13.6868C22.9641 13.5446 22.3027 13.4266 21.605 13.3326C22.0648 14.0794 22.4949 14.8451 22.8942 15.6278C23.1641 14.9598 23.3958 14.3128 23.5893 13.6868ZM24.697 13.9722C24.4022 14.9439 24.0167 15.9622 23.5518 17.0014C24.0167 18.0407 24.4022 19.0589 24.697 20.0306C27.2391 19.2885 28.8673 18.1618 28.8673 17.0014C28.8673 15.841 27.2391 14.7144 24.697 13.9722ZM17.9994 19.1906C17.7138 19.2002 17.4292 19.1506 17.1626 19.0449C16.896 18.9392 16.6528 18.7795 16.4474 18.5753C16.2421 18.371 16.0788 18.1265 15.9673 17.8561C15.8558 17.5857 15.7983 17.2951 15.7983 17.0014C15.7983 16.7078 15.8558 16.4171 15.9673 16.1467C16.0788 15.8764 16.2421 15.6318 16.4474 15.4276C16.6528 15.2233 16.896 15.0636 17.1626 14.9579C17.4292 14.8522 17.7138 14.8027 17.9994 14.8122C18.5524 14.8308 19.0768 15.0695 19.4616 15.4781C19.8464 15.8866 20.0615 16.4329 20.0615 17.0014C20.0615 17.57 19.8464 18.1162 19.4616 18.5248C19.0768 18.9333 18.5524 19.1721 17.9994 19.1906Z" fill="#0F0F0F"/>
</svg>
