<svg width="35" height="35" viewBox="0 0 35 35" fill="none" xmlns="http://www.w3.org/2000/svg">
<path d="M20.3907 22.666C19.758 23.5932 19.0688 24.478 18.3274 25.3152C20.3033 27.2921 22.1399 28.2178 23.1592 27.61C24.1784 27.0034 24.319 24.8998 23.647 22.1483C22.6395 22.3797 21.5458 22.5563 20.3907 22.666ZM18.8435 22.7707C17.9482 22.8082 17.0518 22.8082 16.1565 22.7707C16.6006 23.37 17.0518 23.9254 17.4994 24.4309C17.949 23.925 18.397 23.3724 18.8435 22.7707ZM24.7961 13.1543C27.9437 14.0849 30 15.6318 30 17.499C30 19.3663 27.9449 20.9132 24.7973 21.8438C25.5887 25.1203 25.317 27.7293 23.7497 28.6624C22.1824 29.5966 19.8557 28.5345 17.4994 26.1885C15.1443 28.5332 12.8176 29.5966 11.2503 28.6624C9.683 27.7281 9.41135 25.1203 10.2027 21.8438C7.05509 20.9156 5 19.3687 5 17.5015C5 15.6342 7.05509 14.0873 10.2027 13.1567C9.41135 9.88022 9.683 7.27119 11.2503 6.33695C12.8176 5.40394 15.1443 6.46607 17.4994 8.812C19.8557 6.46607 22.1824 5.40394 23.7497 6.33695C25.317 7.27119 25.5887 9.88022 24.7973 13.1567M23.6481 12.8547C24.3213 10.1019 24.1796 7.99957 23.1603 7.39177C22.1411 6.78519 20.3045 7.7109 18.3297 9.68777C19.0707 10.525 19.7595 11.4098 20.3919 12.337C21.547 12.4466 22.6407 12.622 23.6481 12.8547ZM11.353 22.1483C10.681 24.9011 10.8216 27.0034 11.842 27.61C12.8613 28.2165 14.6979 27.2921 16.6727 25.3152C15.9316 24.4776 15.2428 23.5923 14.6105 22.6647C13.5155 22.5634 12.4279 22.3905 11.3542 22.1471M16.1589 12.2298C17.0542 12.1923 17.9506 12.1923 18.8458 12.2298C18.4199 11.6575 17.9707 11.104 17.4994 10.5708C17.0506 11.0784 16.603 11.6322 16.1565 12.2323M14.6093 12.3382C15.2417 11.4111 15.9304 10.5262 16.6715 9.68899C14.6967 7.7109 12.8601 6.78519 11.842 7.39177C10.8227 7.99957 10.681 10.1031 11.3542 12.8547C12.3617 12.6232 13.4554 12.4478 14.6105 12.337M19.7364 21.4966C20.5774 20.2242 21.3251 18.8888 21.9734 17.5015C21.3255 16.1142 20.5782 14.7788 19.7376 13.5063C18.2487 13.3915 16.7536 13.3915 15.2648 13.5063C14.4234 14.7787 13.6752 16.1142 13.0266 17.5015C13.6749 18.8888 14.4226 20.2242 15.2636 21.4966C16.7525 21.6114 18.2475 21.6114 19.7364 21.4966ZM21.2541 21.3359C21.9816 21.2384 22.6706 21.1154 23.321 20.9668C23.1079 20.2798 22.8667 19.6023 22.5981 18.9363C22.1822 19.7546 21.7342 20.5551 21.2553 21.3359M13.7471 13.6659C13.0196 13.7641 12.3306 13.8876 11.6802 14.0362C11.881 14.6907 12.1223 15.3675 12.4042 16.0666C12.8201 15.2484 13.2681 14.4479 13.7471 13.6671M11.6802 20.968C12.3306 21.1158 13.0196 21.2388 13.7471 21.3371C13.2681 20.5563 12.8201 19.7558 12.4042 18.9375C12.1352 19.6035 11.8937 20.281 11.6802 20.968ZM10.5251 20.6696C10.8346 19.6538 11.2338 18.5892 11.718 17.5027C11.2558 16.4742 10.8574 15.4164 10.5251 14.3358C7.8783 15.1105 6.18226 16.2895 6.18226 17.5027C6.18226 18.7159 7.8783 19.8937 10.5251 20.6696ZM23.3222 14.0362C22.671 13.8876 21.982 13.7641 21.2553 13.6659C21.7342 14.4466 22.1822 15.2471 22.5981 16.0654C22.8792 15.3671 23.1206 14.6907 23.3222 14.0362ZM24.4761 14.3346C24.169 15.3504 23.7674 16.415 23.2832 17.5015C23.7674 18.588 24.169 19.6525 24.4761 20.6684C27.1241 19.8925 28.8201 18.7146 28.8201 17.5015C28.8201 16.2883 27.1241 15.1105 24.4761 14.3346ZM17.4994 19.7902C17.2019 19.8002 16.9054 19.7484 16.6277 19.6379C16.35 19.5274 16.0966 19.3604 15.8827 19.1469C15.6688 18.9334 15.4987 18.6777 15.3826 18.395C15.2664 18.1123 15.2066 17.8085 15.2066 17.5015C15.2066 17.1945 15.2664 16.8906 15.3826 16.6079C15.4987 16.3253 15.6688 16.0696 15.8827 15.8561C16.0966 15.6426 16.35 15.4756 16.6277 15.3651C16.9054 15.2546 17.2019 15.2028 17.4994 15.2128C18.0755 15.2322 18.6216 15.4818 19.0225 15.9089C19.4233 16.336 19.6474 16.9071 19.6474 17.5015C19.6474 18.0959 19.4233 18.667 19.0225 19.0941C18.6216 19.5212 18.0755 19.7708 17.4994 19.7902Z" fill="#0F0F0F"/>
</svg>
