<svg width="35" height="35" viewBox="0 0 35 35" fill="none" xmlns="http://www.w3.org/2000/svg">
<path d="M28.1102 19.647C27.1334 19.6523 26.2844 19.8988 25.5736 20.2631C25.3126 19.7219 25.0518 19.2397 25.0059 18.886C24.9546 18.4735 24.8933 18.2216 24.9546 17.7287C25.0161 17.2357 25.2922 16.5337 25.2871 16.4802C25.2819 16.4266 25.2257 16.1747 24.6631 16.1695C24.1006 16.1642 23.6147 16.282 23.5585 16.4373C23.5022 16.5927 23.3948 16.9464 23.3232 17.3106C23.226 17.8466 22.1981 19.7594 21.61 20.7614C21.4207 20.3703 21.2571 20.0273 21.2212 19.7541C21.1701 19.3416 21.1087 19.0897 21.1701 18.5967C21.2315 18.1037 21.5077 17.4019 21.5025 17.3482C21.4974 17.2947 21.4411 17.0428 20.8786 17.0375C20.3159 17.0321 19.8301 17.15 19.7739 17.3053C19.7176 17.4608 19.6562 17.8251 19.5386 18.1788C19.4211 18.5325 18.0555 21.726 17.6975 22.5511C17.5528 22.885 17.401 23.2156 17.2423 23.5424C17.2423 23.5424 17.2372 23.5585 17.2218 23.5853C17.1719 23.6878 17.1208 23.7896 17.0685 23.8907V23.896C16.9917 24.0408 16.9099 24.1747 16.869 24.1747C16.8383 24.1747 16.782 23.7889 16.8792 23.2638C17.0837 22.1547 17.5696 20.4293 17.5646 20.3703C17.5646 20.3382 17.6566 20.0381 17.2475 19.8827C16.8485 19.7273 16.7053 19.9845 16.6695 19.9845C16.6336 19.9845 16.6081 20.0756 16.6081 20.0756C16.6081 20.0756 17.0531 18.1359 15.7591 18.1359C14.9512 18.1359 13.8362 19.0629 13.2838 19.8988C12.6559 20.2567 12.0286 20.6158 11.4018 20.9758C11.1001 21.1526 10.7881 21.3295 10.4966 21.4955C10.4761 21.4742 10.4557 21.4473 10.4352 21.4259C8.87017 19.6738 5.97556 18.4359 6.09829 16.0837C6.14435 15.2264 6.42557 12.9759 11.6575 10.2432C15.9637 8.01947 19.3904 8.63562 19.9836 10.002C20.8325 11.9525 18.1476 15.5747 13.6981 16.0997C12.0002 16.298 11.1102 15.6121 10.8853 15.355C10.65 15.087 10.6142 15.0709 10.5272 15.1246C10.3841 15.205 10.4761 15.4461 10.5272 15.5854C10.6602 15.9496 11.2074 16.5927 12.1331 16.9089C12.9514 17.1874 14.9408 17.3429 17.3497 16.3677C20.0449 15.2745 22.1521 12.2364 21.5332 9.6913C20.9143 7.10858 16.8229 6.25664 12.9514 7.69795C10.65 8.55541 8.1542 9.9056 6.3591 11.6632C4.22641 13.7528 3.88883 15.5693 4.02691 16.3302C4.52309 19.0307 8.07753 20.7883 9.49929 22.0903C9.42767 22.1332 9.36109 22.1708 9.30494 22.2029C8.59401 22.5726 5.88343 24.0568 5.20836 25.6268C4.44127 27.4057 5.3312 28.6811 5.91929 28.8524C7.7451 29.383 9.62202 28.4292 10.6295 26.8538C11.637 25.2785 11.5143 23.2316 11.0489 22.2939C11.0438 22.2832 11.0387 22.2724 11.0284 22.2618C11.2126 22.1493 11.4018 22.0314 11.5859 21.9189C11.9244 21.7092 12.2671 21.5073 12.6139 21.3133C12.44 21.8117 12.3121 22.4064 12.2508 23.2638C12.174 24.2712 12.5677 25.5785 13.0843 26.0929C13.3145 26.3181 13.5856 26.3234 13.7595 26.3234C14.3629 26.3234 14.6341 25.7982 14.9358 25.1767C15.304 24.4159 15.6364 23.5317 15.6364 23.5317C15.6364 23.5317 15.2222 25.9215 16.3474 25.9215C16.7564 25.9215 17.1707 25.3642 17.3549 25.0803V25.0856C17.3549 25.0856 17.3651 25.0695 17.3856 25.032C17.4265 24.9624 17.452 24.9194 17.452 24.9194V24.9088C17.6157 24.6087 17.984 23.9282 18.5311 22.7976C19.2369 21.3402 19.9171 19.5184 19.9171 19.5184C19.9171 19.5184 19.9786 19.9631 20.1882 20.7025C20.311 21.1366 20.5665 21.6134 20.7712 22.0742C20.6076 22.3154 20.5052 22.4493 20.5052 22.4493L20.5104 22.4547C20.3774 22.6368 20.2342 22.835 20.0756 23.0281C19.5181 23.7246 18.8534 24.5231 18.7613 24.7534C18.6538 25.0266 18.6794 25.2249 18.8841 25.3857C19.0324 25.5036 19.2982 25.5196 19.5694 25.5036C20.0706 25.466 20.4234 25.3374 20.5973 25.2571C20.8684 25.1553 21.1855 24.9998 21.482 24.7694C22.0293 24.3461 22.3616 23.7407 22.331 22.9424C22.3157 22.503 22.1776 22.0635 22.0088 21.6509C22.06 21.576 22.106 21.5009 22.1572 21.4259C23.0215 20.1024 23.6915 18.6503 23.6915 18.6503C23.6915 18.6503 23.7529 19.095 23.9625 19.8345C24.0648 20.2096 24.2745 20.6168 24.4586 21.0133C23.6454 21.7046 23.1442 22.5082 22.9652 23.0334C22.6431 24.0086 22.8936 24.4479 23.3693 24.5497C23.584 24.598 23.8909 24.4908 24.1159 24.389C24.4023 24.2926 24.7399 24.1265 25.0621 23.8799C25.6094 23.4567 26.1361 22.8672 26.1054 22.0689C26.09 21.7046 25.998 21.3455 25.8701 20.9972C26.5606 20.6973 27.4505 20.5311 28.5858 20.6704C31.0203 20.9704 31.501 22.5618 31.4089 23.2317C31.3168 23.9014 30.8054 24.2658 30.6367 24.3783C30.4678 24.4909 30.4117 24.5284 30.427 24.6087C30.4474 24.7266 30.5292 24.7213 30.6725 24.6998C30.872 24.6623 31.9511 24.1586 31.9971 22.9262C32.0738 21.3509 30.6418 19.6309 28.1102 19.647ZM9.33049 26.2805C8.52239 27.2021 7.39731 27.5504 6.91144 27.2557C6.38981 26.9395 6.59436 25.5785 7.5865 24.6034C8.18995 24.0086 8.96735 23.4566 9.48393 23.1191C9.60151 23.0441 9.77545 22.937 9.98516 22.803C10.0209 22.7815 10.0414 22.7708 10.0414 22.7708L10.1642 22.6904C10.5272 24.0835 10.1795 25.3107 9.33049 26.2805ZM15.212 22.0903C14.9306 22.8084 14.3426 24.6463 13.9846 24.5444C13.6777 24.4587 13.4884 23.0656 13.9231 21.6885C14.143 20.9972 14.6084 20.172 14.8795 19.8506C15.3193 19.3362 15.8052 19.1646 15.9228 19.3737C16.0712 19.647 15.3858 21.6402 15.212 22.0903ZM20.0654 24.523C19.9477 24.5873 19.8353 24.6302 19.7841 24.598C19.7484 24.5765 19.8353 24.4908 19.8353 24.4908C19.8353 24.4908 20.4439 23.805 20.6842 23.4942C20.8224 23.312 20.986 23.0977 21.1599 22.8565V22.9262C21.1599 23.746 20.4029 24.298 20.0653 24.523M23.809 23.6282C23.722 23.5638 23.7373 23.3495 24.0289 22.6797C24.1414 22.4171 24.4072 21.9778 24.8625 21.5545C24.9136 21.7259 24.9495 21.8921 24.9443 22.0475C24.9392 23.0816 24.2335 23.4674 23.809 23.6282Z" fill="#0F0F0F"/>
</svg>
