<svg width="35" height="35" viewBox="0 0 35 35" fill="none" xmlns="http://www.w3.org/2000/svg">
<path d="M17.5 10C14.1625 10 12.0875 11.7733 11.25 15.3333C12.5 13.56 13.9625 12.8933 15.625 13.3333C16.575 13.5867 17.2625 14.32 18.0125 15.1333C19.2375 16.4667 20.625 18 23.75 18C27.0875 18 29.1625 16.2267 30 12.6667C28.75 14.44 27.2875 15.1067 25.625 14.6667C24.675 14.4133 24 13.68 23.2375 12.8667C22.0125 11.5333 20.625 10 17.5 10ZM11.25 18C7.9125 18 5.8375 19.7733 5 23.3333C6.25 21.56 7.7125 20.8933 9.375 21.3333C10.325 21.5867 11 22.32 11.7625 23.1333C12.9875 24.4667 14.375 26 17.5 26C20.8375 26 22.9125 24.2267 23.75 20.6667C22.5 22.44 21.0375 23.1067 19.375 22.6667C18.425 22.4133 17.75 21.68 16.9875 20.8667C15.7625 19.5333 14.375 18 11.25 18Z" fill="#0F0F0F"/>
</svg>
