<svg width="35" height="35" viewBox="0 0 35 35" fill="none" xmlns="http://www.w3.org/2000/svg">
<path d="M6 17V29H30V5H6V17ZM25.3395 16.043C25.9152 16.1775 26.4384 16.4791 26.8433 16.91C27.0623 17.144 27.39 17.5738 27.4177 17.6795C27.4252 17.711 26.3827 18.41 25.7498 18.8007C25.7265 18.8165 25.6327 18.719 25.5308 18.566C25.2225 18.1167 24.8977 17.9217 24.402 17.8865C23.6752 17.8392 23.2065 18.2188 23.2103 18.8555C23.2064 19.0113 23.2412 19.1656 23.3115 19.3048C23.472 19.637 23.7728 19.8358 24.702 20.2385C26.421 20.9765 27.1553 21.4648 27.612 22.1562C28.1235 22.9295 28.2367 24.164 27.8932 25.0858C27.5107 26.0818 26.565 26.7612 25.2367 26.984C24.8265 27.0583 23.85 27.0462 23.4083 26.9645C22.4438 26.7927 21.5295 26.3158 20.967 25.691C20.7442 25.4487 20.3145 24.812 20.3422 24.7692C20.3542 24.7535 20.4518 24.6912 20.5613 24.6283L21.4523 24.1122L22.1437 23.7103L22.2885 23.9247C22.4918 24.233 22.9327 24.6552 23.199 24.7955C23.9648 25.202 25.0155 25.1435 25.5353 24.6785C25.746 24.503 25.8638 24.233 25.848 23.96C25.848 23.6825 25.8127 23.558 25.668 23.3503C25.4805 23.0847 25.1017 22.8582 24.0195 22.3895C22.7812 21.854 22.2458 21.5263 21.762 20.999C21.4568 20.6525 21.2314 20.243 21.102 19.7997C21.012 19.46 20.9888 18.608 21.0592 18.2682C21.3135 17.069 22.2195 16.2372 23.52 15.9913C23.9423 15.9095 24.9263 15.9402 25.3403 16.0422L25.3395 16.043ZM19.707 17.0472L19.7145 18.0275H16.5893V26.9067H14.3783V18.0275H11.2575V17.0668C11.2575 16.5313 11.2695 16.0865 11.2845 16.0745C11.2965 16.0588 13.1948 16.0512 15.4995 16.055L19.695 16.067L19.707 17.0472Z" fill="#0F0F0F"/>
</svg>
