<svg width="35" height="35" viewBox="0 0 35 35" fill="none" xmlns="http://www.w3.org/2000/svg">
<path d="M17.5 5C10.6125 5 5 10.6125 5 17.5C5 24.3875 10.6125 30 17.5 30C24.3875 30 30 24.3875 30 17.5C30 10.6125 24.3875 5 17.5 5ZM6.2625 17.5C6.2625 15.875 6.6125 14.325 7.2375 12.925L12.6 27.6125C8.85 25.7875 6.2625 21.95 6.2625 17.5ZM17.5 28.7375C16.4 28.7375 15.3375 28.575 14.325 28.275L17.7 18.475L21.15 27.9375C21.175 27.9875 21.2 28.05 21.225 28.0875C20.0625 28.5125 18.8125 28.7375 17.5 28.7375ZM19.05 12.225C19.725 12.1875 20.3375 12.1125 20.3375 12.1125C20.9375 12.0375 20.875 11.15 20.2625 11.1875C20.2625 11.1875 18.4375 11.325 17.2625 11.325C16.1625 11.325 14.3 11.1875 14.3 11.1875C13.7 11.1625 13.625 12.0875 14.2375 12.125C14.2375 12.125 14.8125 12.2 15.4125 12.2375L17.1625 17.0375L14.7 24.4125L10.6125 12.225C11.2875 12.2 11.9 12.125 11.9 12.125C12.5 12.05 12.4375 11.1625 11.825 11.2C11.825 11.2 10 11.3375 8.825 11.3375C8.6125 11.3375 8.3625 11.3375 8.1 11.325C10.125 8.275 13.575 6.2625 17.5 6.2625C20.425 6.2625 23.0875 7.375 25.0875 9.2125C25.0375 9.2125 24.9875 9.2 24.9375 9.2C23.8375 9.2 23.05 10.1625 23.05 11.2C23.05 12.125 23.5875 12.9125 24.15 13.8375C24.575 14.5875 25.075 15.55 25.075 16.9375C25.075 17.9 24.7 19.0125 24.225 20.575L23.1 24.325L19.05 12.225ZM27.3625 12.1125C28.7659 14.6822 29.1109 17.6981 28.3241 20.5184C27.5373 23.3386 25.6809 25.7404 23.15 27.2125L26.5875 17.2875C27.225 15.6875 27.4375 14.4 27.4375 13.2625C27.4375 12.85 27.4125 12.4625 27.3625 12.1125Z" fill="#0F0F0F"/>
</svg>
