<svg width="37" height="37" viewBox="0 0 37 37" fill="none" xmlns="http://www.w3.org/2000/svg">
<g clip-path="url(#clip0_18_158)">
<path fill-rule="evenodd" clip-rule="evenodd" d="M20.0417 4.9765L32.3719 12.0944C32.8406 12.365 33.2299 12.7542 33.5005 13.2229C33.7711 13.6916 33.9136 14.2233 33.9136 14.7645V22.2355C33.9136 22.7767 33.7711 23.3084 33.5005 23.7771C33.2299 24.2458 32.8406 24.635 32.3719 24.9056L20.0417 32.0235C19.5729 32.2941 19.0412 32.4366 18.5 32.4366C17.9588 32.4366 17.4271 32.2941 16.9583 32.0235L4.62808 24.9056C4.15937 24.635 3.77014 24.2458 3.49953 23.7771C3.22891 23.3084 3.08643 22.7767 3.08642 22.2355V14.7645C3.08643 14.2233 3.22891 13.6916 3.49953 13.2229C3.77014 12.7542 4.15937 12.365 4.62808 12.0944L16.9583 4.9765C17.4271 4.70588 17.9588 4.56342 18.5 4.56342C19.0412 4.56342 19.5729 4.70588 20.0417 4.9765ZM12.6386 20.2806L7.71142 23.125L16.9583 28.4638V22.775L12.6386 20.2806ZM24.3614 20.2806L20.0417 22.7735V28.4623L29.2886 23.125L24.3614 20.2806ZM6.16975 16.5452V20.4548L9.55525 18.5L6.16975 16.5452ZM30.8302 16.5452L27.4448 18.5L30.8302 20.4548V16.5452ZM18.5 16.8967L15.7219 18.5L18.5 20.1033L21.2781 18.5L18.5 16.8967ZM16.9583 8.53621L7.71142 13.875L12.6386 16.7194L16.9583 14.2265V8.53621ZM20.0417 8.53621V14.225L24.3614 16.7194L29.2886 13.875L20.0417 8.53621Z" fill="white"/>
</g>
<defs>
<clipPath id="clip0_18_158">
<rect width="37" height="37" fill="white"/>
</clipPath>
</defs>
</svg>
