<svg width="37" height="37" viewBox="0 0 37 37" fill="none" xmlns="http://www.w3.org/2000/svg">
<g clip-path="url(#clip0_70_9)">
<path d="M18.5 4.0293C26.4922 4.0293 32.9586 10.4957 32.9586 18.4758C32.9586 26.4559 26.4922 32.9344 18.5 32.9344C10.5078 32.9344 4.04141 26.468 4.04141 18.4879C4.04141 10.5078 10.5078 4.0293 18.5 4.0293Z" fill="#E74D89"/>
<path d="M18.5 33.9637C9.95078 33.9637 3 27.025 3 18.4879C3 9.93867 9.95078 3 18.5 3C27.0492 3 34 9.93867 34 18.4758C34 27.0129 27.0492 33.9637 18.5 33.9637ZM31.566 20.5949C31.118 20.4496 27.473 19.3719 23.3195 20.0258C25.0512 24.7727 25.7535 28.6477 25.8867 29.4469C28.8656 27.4488 30.9848 24.2762 31.566 20.5949ZM23.6707 30.6699C23.477 29.5074 22.702 25.4629 20.8492 20.6434C20.825 20.6555 20.7887 20.6676 20.7645 20.6676C13.293 23.2711 10.6168 28.4418 10.3746 28.9262C12.6148 30.6699 15.4363 31.7113 18.5 31.7113C20.3285 31.7234 22.0844 31.348 23.6707 30.6699ZM8.66719 27.3398C8.96992 26.8313 12.6027 20.825 19.4324 18.609C19.602 18.5484 19.7836 18.5 19.9531 18.4516C19.6262 17.7008 19.2629 16.95 18.8754 16.2113C12.2637 18.1852 5.8457 18.1004 5.26445 18.0883C5.26445 18.2215 5.25234 18.3547 5.25234 18.4879C5.26445 21.8906 6.54805 24.9906 8.66719 27.3398ZM5.54297 15.7875C6.13633 15.7996 11.5855 15.8238 17.7855 14.177C15.5937 10.2777 13.2203 7.0082 12.8812 6.53594C9.16367 8.27969 6.40273 11.6945 5.54297 15.7875ZM15.4 5.63984C15.7633 6.12422 18.173 9.39375 20.3406 13.3777C25.0512 11.6098 27.0371 8.9457 27.2793 8.60664C24.9422 6.53594 21.8664 5.27656 18.5 5.27656C17.4344 5.27656 16.393 5.40977 15.4 5.63984ZM28.7445 10.1324C28.466 10.5078 26.25 13.3535 21.3578 15.3516C21.6605 15.9812 21.9633 16.623 22.2418 17.2648C22.3387 17.4949 22.4355 17.725 22.5324 17.943C26.9402 17.3859 31.3117 18.282 31.7477 18.3668C31.7113 15.2547 30.5973 12.3848 28.7445 10.1324Z" fill="#B2215A"/>
</g>
<defs>
<clipPath id="clip0_70_9">
<rect width="31" height="31" fill="white" transform="translate(3 3)"/>
</clipPath>
</defs>
</svg>
